<?xml version="1.0" standalone="no"?>
<!DOCTYPE svg PUBLIC "-//W3C//DTD SVG 20010904//EN"
 "http://www.w3.org/TR/2001/REC-SVG-20010904/DTD/svg10.dtd">
<svg version="1.0" xmlns="http://www.w3.org/2000/svg"
 width="1210.000000pt" height="1210.000000pt" viewBox="0 0 1210.000000 1210.000000"
 preserveAspectRatio="xMidYMid meet">
<metadata>
Created by potrace 1.11, written by Peter Selinger 2001-2013
</metadata>
<g transform="translate(0.000000,1210.000000) scale(0.100000,-0.100000)"
fill="#000000" stroke="none">
<path d="M1065 12083 c-520 -68 -920 -434 -1031 -943 -18 -82 -19 -243 -19
-5090 0 -4847 1 -5008 19 -5090 102 -469 457 -824 926 -926 82 -18 243 -19
5085 -19 4222 0 5011 2 5070 14 480 95 847 454 951 931 18 82 19 243 19 5090
0 4847 -1 5008 -19 5090 -101 464 -437 805 -906 923 l-85 22 -4990 1 c-2745 1
-5003 -1 -5020 -3z m1878 -1252 c70 -69 127 -128 127 -131 0 -3 -188 -190
-417 -416 l-418 -410 -150 154 -150 155 394 388 c217 213 404 390 415 392 48
9 74 -9 199 -132z m424 -489 c-17 -19 -207 -205 -420 -415 l-388 -381 -152
153 -152 152 420 414 420 413 152 -151 153 -151 -33 -34z m268 -202 l150 -150
-420 -414 -420 -414 -153 151 -152 152 412 412 c227 227 417 413 423 413 6 0
78 -67 160 -150z m-1567 -133 c78 -79 142 -148 142 -153 0 -8 -253 -262 -677
-679 l-153 -150 -106 105 c-58 58 -112 117 -120 132 -17 32 -18 86 -3 124 10
29 746 763 764 764 6 0 75 -64 153 -143z m1890 -198 l143 -147 -411 -408
c-226 -225 -415 -410 -418 -412 -4 -1 -75 66 -157 149 l-150 150 415 409 c228
225 420 408 425 407 6 -1 75 -68 153 -148z m-1690 -557 c-150 -150 -339 -337
-421 -414 l-147 -140 -148 153 -149 153 416 412 416 413 153 -152 152 -152
-272 -273z m2067 178 l150 -150 -418 -417 -417 -418 -150 150 c-82 82 -150
153 -150 158 0 8 821 826 830 827 3 0 73 -68 155 -150z m-1560 -141 l150 -151
-420 -414 -420 -413 -153 152 -154 152 417 413 c230 226 420 412 424 412 3 0
74 -68 156 -151z m1887 -186 l148 -148 -412 -412 c-227 -227 -417 -413 -423
-413 -6 0 -77 67 -158 148 l-148 148 415 412 c227 227 418 412 422 412 5 0 75
-66 156 -147z m-1565 -135 c79 -79 143 -148 143 -153 0 -6 -187 -195 -416
-420 l-416 -408 -151 151 -150 151 414 410 c228 225 418 410 424 411 5 0 74
-64 152 -142z m1946 -254 l147 -152 -417 -411 -417 -412 -154 153 -154 153
419 412 c230 227 421 412 424 410 3 -1 72 -70 152 -153z m-1566 -136 l151
-153 -419 -414 -419 -413 -149 153 -150 154 412 413 c227 226 414 412 417 412
3 0 73 -69 157 -152z m1845 -145 c58 -60 111 -118 117 -130 15 -30 14 -99 -3
-131 -8 -15 -181 -191 -384 -390 l-371 -363 42 -37 c23 -20 52 -46 65 -56 l23
-20 39 39 40 39 35 -34 35 -34 294 293 294 294 938 -249 937 -250 253 -934
252 -935 -289 -290 -288 -290 30 -34 31 -33 -41 -42 -41 -42 58 -56 58 -57
345 346 c189 190 362 358 383 374 32 24 49 29 93 29 30 0 66 -6 81 -14 15 -8
72 -60 127 -115 l100 -101 -418 -418 -417 -417 -154 154 c-103 102 -156 149
-161 141 -5 -8 46 -66 144 -164 l151 -151 -418 -418 -418 -418 -102 104 c-134
136 -154 185 -112 271 12 26 148 169 378 399 l359 359 -59 56 -59 56 -42 -42
-43 -42 -32 33 -33 32 -287 -294 -288 -294 -49 12 c-193 48 -1821 484 -1827
490 -4 3 -121 426 -259 940 l-252 933 287 287 287 287 -31 29 c-16 16 -30 33
-30 39 0 6 17 27 37 48 l37 38 -53 54 c-43 44 -52 59 -48 78 5 20 -12 42 -119
148 -69 69 -134 137 -145 151 l-19 27 413 411 c226 226 414 411 417 411 3 0
53 -48 112 -107z m-1520 -180 l148 -148 -417 -417 -418 -418 -147 147 c-82 81
-148 153 -148 160 0 10 819 823 830 823 3 0 71 -66 152 -147z m383 -383 l150
-150 -418 -417 -417 -418 -150 150 c-82 82 -150 154 -150 160 0 9 820 823 830
824 3 1 73 -67 155 -149z m325 -333 l145 -148 -365 -363 c-201 -200 -381 -373
-400 -385 -38 -23 -89 -27 -123 -10 -12 6 -73 61 -135 122 l-112 112 412 413
c227 227 418 411 423 410 6 -2 75 -70 155 -151z m3973 -3069 l-418 -418 -147
147 c-82 81 -148 152 -148 158 0 5 186 196 412 422 l413 413 152 -152 153
-153 -417 -417z m652 182 l150 -150 -418 -418 -417 -417 -152 153 -153 152
415 415 c228 228 417 415 420 415 3 0 73 -68 155 -150z m63 -887 c-227 -227
-417 -413 -423 -413 -13 0 -295 282 -295 295 0 5 186 196 412 422 l413 413
152 -152 153 -153 -412 -412z m-1303 417 l150 -150 -415 -415 -415 -415 -152
152 -153 153 412 412 c227 227 415 413 418 413 3 0 73 -68 155 -150z m1950
-240 l150 -150 -418 -417 -417 -418 -150 150 c-82 82 -150 154 -150 160 0 13
812 825 825 825 6 0 78 -68 160 -150z m-1830 -710 l-415 -415 -152 153 -153
152 415 415 415 415 152 -152 153 -153 -415 -415z m2097 33 c-110 -114 -295
-302 -410 -417 l-210 -209 -156 149 -157 148 418 418 418 418 149 -149 150
-150 -202 -208z m-1507 207 l150 -150 -415 -415 -415 -415 -152 152 -153 153
412 412 c227 227 415 413 418 413 3 0 73 -68 155 -150z m1680 -800 l-415 -415
-152 153 -153 152 415 415 415 415 152 -152 153 -153 -415 -415z m-1295 416
l152 -149 -416 -416 -416 -416 -152 152 -153 153 410 413 c226 228 413 413
417 413 3 -1 75 -68 158 -150z m1837 -128 c55 -57 106 -114 113 -127 17 -33
15 -112 -3 -147 -9 -16 -179 -192 -379 -392 l-363 -362 -150 150 -149 150 409
413 c226 228 412 415 415 416 3 0 51 -45 107 -101z m-1510 -190 c79 -79 143
-147 143 -153 0 -5 -186 -196 -412 -422 l-413 -413 -152 152 -153 153 412 412
c227 227 417 413 423 413 5 0 74 -64 152 -142z m386 -386 l147 -147 -414 -420
-414 -420 -156 155 -156 155 412 412 c227 227 417 413 423 413 6 0 77 -66 158
-148z m98 -846 c-329 -329 -379 -376 -418 -387 -76 -21 -112 -3 -236 119
l-108 106 418 418 418 418 150 -150 150 -150 -374 -374z"/>
<path d="M5358 6721 l-397 -399 29 -109 c17 -59 82 -304 147 -543 64 -239 117
-436 118 -438 2 -2 247 -68 546 -147 l544 -145 398 398 c218 218 397 402 397
407 0 18 -286 1075 -293 1081 -4 5 -863 237 -1072 290 -17 4 -98 -73 -417
-395z"/>
</g>
</svg>
