<svg width="2284" height="2284" viewBox="0 0 2284 2284" fill="none" xmlns="http://www.w3.org/2000/svg">
<path d="M310.56 2102.77C310.56 2102.77 308.531 2153.82 358.404 2153.82C420.449 2153.82 934.138 2153.15 934.138 2153.15L934.983 1681.39C934.983 1681.39 926.868 1603.62 1002.35 1603.62H1241.24C1330.5 1603.62 1325 1681.39 1325 1681.39L1323.99 2151.63C1323.99 2151.63 1811.05 2151.63 1887.55 2151.63C1950.86 2151.63 1947.99 2088.06 1947.99 2088.06V1218.33L1153.75 511.828L310.56 1218.33C310.56 1218.33 310.56 2102.77 310.56 2102.77Z" fill="white"/>
<path d="M0 1152.57C0 1152.57 71.5969 1284.52 227.724 1152.57L1160.77 363.225L2035.57 1147.66C2216.29 1278.01 2284 1147.66 2284 1147.66L1160.77 130.176L0 1152.57Z" fill="white"/>
<path d="M2014.35 361.365H1789.33L1790.26 634.228L2014.35 824.336V361.365Z" fill="white"/>
</svg>