<svg width="512" height="512" viewBox="0 0 512 512" fill="none" xmlns="http://www.w3.org/2000/svg">
<path d="M498.791 161.127C481.246 143.581 452.697 143.582 435.146 161.131C429.748 166.534 395.283 201.027 390.018 206.297V87.426C390.018 75.406 385.337 64.106 376.837 55.607L334.412 13.18C325.913 4.68 314.612 0 302.592 0H45.0181C20.2051 0 0.0180664 20.187 0.0180664 45V467C0.0180664 491.813 20.2051 512 45.0181 512H345.018C369.831 512 390.018 491.813 390.018 467V333.631L498.79 224.767C516.377 207.181 516.381 178.715 498.791 161.127ZM300.019 30C302.853 30 308.314 29.509 313.199 34.393L355.625 76.82C360.385 81.581 360.019 86.798 360.019 90H300.019V30ZM360.018 467C360.018 475.271 353.29 482 345.018 482H45.0181C36.7471 482 30.0181 475.271 30.0181 467V45C30.0181 36.729 36.7471 30 45.0181 30H270.018V105C270.018 113.284 276.734 120 285.018 120H360.018V236.323C360.018 236.323 315.764 280.615 315.762 280.616L294.559 301.82C292.913 303.466 291.671 305.474 290.935 307.683L269.721 371.323C267.924 376.713 269.327 382.656 273.345 386.673C277.368 390.696 283.313 392.092 288.695 390.297L352.335 369.084C354.544 368.348 356.552 367.107 358.198 365.46L360.018 363.64V467ZM326.378 312.427L347.591 333.64L339.488 341.743L307.669 352.349L318.275 320.529L326.378 312.427ZM368.8 312.422L347.587 291.209C358.883 279.904 409.052 229.692 419.692 219.043L440.905 240.256L368.8 312.422ZM477.573 203.558L462.11 219.034L440.897 197.821L456.365 182.34C462.217 176.491 471.731 176.492 477.579 182.34C483.426 188.19 483.457 197.673 477.573 203.558Z" fill="white"/>
<path d="M285.018 150H75.0181C66.7341 150 60.0181 156.716 60.0181 165C60.0181 173.284 66.7341 180 75.0181 180H285.018C293.302 180 300.018 173.284 300.018 165C300.018 156.716 293.302 150 285.018 150Z" fill="white"/>
<path d="M225.018 210H75.0181C66.7341 210 60.0181 216.716 60.0181 225C60.0181 233.284 66.7341 240 75.0181 240H225.018C233.302 240 240.018 233.284 240.018 225C240.018 216.716 233.302 210 225.018 210Z" fill="white"/>
<path d="M225.018 270H75.0181C66.7341 270 60.0181 276.716 60.0181 285C60.0181 293.284 66.7341 300 75.0181 300H225.018C233.302 300 240.018 293.284 240.018 285C240.018 276.716 233.302 270 225.018 270Z" fill="white"/>
<path d="M225.018 330H75.0181C66.7341 330 60.0181 336.716 60.0181 345C60.0181 353.284 66.7341 360 75.0181 360H225.018C233.302 360 240.018 353.284 240.018 345C240.018 336.716 233.302 330 225.018 330Z" fill="white"/>
<path d="M285.018 422H195.018C186.734 422 180.018 428.716 180.018 437C180.018 445.284 186.734 452 195.018 452H285.018C293.302 452 300.018 445.284 300.018 437C300.018 428.716 293.302 422 285.018 422Z" fill="white"/>
</svg>