<svg width="1089" height="1089" viewBox="0 0 1089 1089" fill="none" xmlns="http://www.w3.org/2000/svg">
<g clip-path="url(#clip0)">
<path d="M462.528 412.048C461.41 412.174 460.255 411.652 459.668 410.627L445.476 386.821C444.679 385.454 445.164 383.709 446.558 382.936C447.942 382.162 449.721 382.63 450.518 383.997L464.71 407.803C465.508 409.17 465.022 410.915 463.628 411.688C463.28 411.895 462.904 412.012 462.528 412.048Z" fill="white"/>
<path d="M450.6 418.65L442.744 405.123C442.404 404.529 442.615 403.774 443.211 403.432L466.305 390.526C466.91 390.193 467.68 390.4 468.029 390.985L475.885 404.511C476.225 405.105 476.014 405.86 475.418 406.202L452.324 419.108C451.719 419.45 450.94 419.243 450.6 418.65Z" fill="white"/>
<path d="M380.713 35.3718L279.219 92.0933L300.367 128.509L401.861 71.788L380.713 35.3718Z" fill="white"/>
<path d="M277.778 89.615L379.266 32.8917L363.011 4.88528C360.316 0.24453 354.293 -1.37434 349.553 1.26981L256.628 53.1995L277.778 89.615Z" fill="white"/>
<path d="M276.79 93.4466L175.304 150.164L196.452 186.58L297.938 129.863L276.79 93.4466Z" fill="white"/>
<path d="M275.357 90.9641L254.207 54.5486L165.325 104.23C158.367 108.115 155.937 116.803 159.907 123.629L173.879 147.687L275.357 90.9641Z" fill="white"/>
<path d="M407.246 81.0676L305.752 137.789L327 174.377L428.494 117.656L407.246 81.0676Z" fill="white"/>
<path d="M429.939 120.135L328.445 176.857L349.488 213.093L450.982 156.372L429.939 120.135Z" fill="white"/>
<path d="M326.016 178.21L224.53 234.927L245.573 271.164L347.059 214.447L326.016 178.21Z" fill="white"/>
<path d="M303.336 139.146L201.85 195.863L223.097 232.451L324.583 175.734L303.336 139.146Z" fill="white"/>
<path d="M456.374 165.654L354.88 222.375L376.127 258.963L477.621 202.242L456.374 165.654Z" fill="white"/>
<path d="M479.059 204.726L377.565 261.447L398.608 297.683L500.102 240.962L479.059 204.726Z" fill="white"/>
<path d="M352.456 223.736L250.97 280.453L272.217 317.041L373.703 260.324L352.456 223.736Z" fill="white"/>
<path d="M375.136 262.801L273.65 319.518L294.693 355.754L396.179 299.037L375.136 262.801Z" fill="white"/>
<path d="M505.499 250.251L404.005 306.973L425.252 343.561L526.746 286.84L505.499 250.251Z" fill="white"/>
<path d="M426.691 346.016L447.74 382.261L536.549 332.625C543.553 328.713 546.001 319.962 542.004 313.091L528.188 289.293L426.691 346.016Z" fill="white"/>
<path d="M401.576 308.326L300.09 365.043L321.337 401.632L422.823 344.915L401.576 308.326Z" fill="white"/>
<path d="M424.261 347.375L322.783 404.098L336.599 427.895C340.587 434.766 349.507 437.168 356.511 433.246L445.311 383.619L424.261 347.375Z" fill="white"/>
<path d="M639.201 709.173C638.083 709.308 636.928 708.786 636.332 707.77L623.112 685.718C622.305 684.36 622.782 682.615 624.175 681.823C625.541 681.032 627.347 681.5 628.145 682.867L641.365 704.919C642.172 706.277 641.695 708.022 640.302 708.813C639.953 709.011 639.577 709.128 639.201 709.173Z" fill="white"/>
<path d="M618.729 701.322L610.799 687.831C610.451 687.238 610.662 686.482 611.258 686.14L634.287 673.109C634.892 672.767 635.663 672.974 636.011 673.558L643.941 687.049C644.289 687.642 644.079 688.398 643.483 688.74L620.453 701.772C619.857 702.113 619.078 701.906 618.729 701.322Z" fill="white"/>
<path d="M765.381 689.696L664.202 746.956L685.55 783.259L786.729 725.999L765.381 689.696Z" fill="white"/>
<path d="M662.735 744.519L763.92 687.265L750.673 664.735C746.199 657.127 736.289 654.519 728.533 658.907L641.392 708.22L662.735 744.519Z" fill="white"/>
<path d="M661.789 748.321L560.618 805.576L581.966 841.879L683.137 784.624L661.789 748.321Z" fill="white"/>
<path d="M660.315 745.885L638.972 709.587L551.841 758.89C544.085 763.279 541.426 773.002 545.9 780.61L559.148 803.139L660.315 745.885Z" fill="white"/>
<path d="M792.165 735.253L690.987 792.513L712.436 828.988L813.614 771.728L792.165 735.253Z" fill="white"/>
<path d="M815.068 774.193L713.89 831.453L735.133 867.576L836.311 810.316L815.068 774.193Z" fill="white"/>
<path d="M711.476 832.818L610.306 890.073L631.549 926.197L732.719 868.942L711.476 832.818Z" fill="white"/>
<path d="M688.573 793.879L587.403 851.134L608.852 887.608L710.022 830.353L688.573 793.879Z" fill="white"/>
<path d="M841.755 819.572L740.576 876.833L762.025 913.307L863.204 856.047L841.755 819.572Z" fill="white"/>
<path d="M864.65 858.516L763.471 915.776L784.714 951.9L885.892 894.64L864.65 858.516Z" fill="white"/>
<path d="M738.163 878.198L636.992 935.453L658.441 971.928L759.612 914.672L738.163 878.198Z" fill="white"/>
<path d="M761.057 917.142L659.886 974.397L681.129 1010.52L782.3 953.266L761.057 917.142Z" fill="white"/>
<path d="M891.336 903.896L790.157 961.156L811.606 997.631L912.785 940.371L891.336 903.896Z" fill="white"/>
<path d="M813.032 1000.15L834.274 1036.27L920.589 987.429C928.804 982.78 931.618 972.482 926.878 964.432L914.208 942.893L813.032 1000.15Z" fill="white"/>
<path d="M787.748 962.529L686.578 1019.78L708.027 1056.26L809.197 999.004L787.748 962.529Z" fill="white"/>
<path d="M810.621 1001.51L709.454 1058.77L722.124 1080.31C726.864 1088.37 737.361 1091.13 745.566 1086.48L831.872 1037.64L810.621 1001.51Z" fill="white"/>
<path d="M543.81 436.727L543.783 357.888L710.298 452.124L640.714 491.562L543.81 436.727Z" fill="white"/>
<path d="M543.893 656.218L543.92 735.057L710.362 640.704L640.751 601.312L543.893 656.218Z" fill="white"/>
<path d="M543.92 735.057L377.404 640.821L446.988 601.375L543.892 656.218L543.92 735.057Z" fill="white"/>
<path d="M543.811 436.727L446.953 491.634L377.342 452.241L543.784 357.888L543.811 436.727Z" fill="white"/>
<path d="M377.341 452.241L377.405 640.821L446.989 601.375L446.952 491.634L377.341 452.241Z" fill="white"/>
<path d="M640.714 491.562L640.751 601.312L710.362 640.704L710.298 452.124L640.714 491.562Z" fill="white"/>
</g>
<defs>
<clipPath id="clip0">
<rect width="1088.74" height="1088.74" fill="white"/>
</clipPath>
</defs>
</svg>
