<?xml version="1.0" encoding="utf-8"?>
<!-- Generator: Adobe Illustrator 23.0.1, SVG Export Plug-In . SVG Version: 6.00 Build 0)  -->
<svg version="1.1" id="Layer_1" xmlns="http://www.w3.org/2000/svg" xmlns:xlink="http://www.w3.org/1999/xlink" x="0px" y="0px"
	 viewBox="0 0 2314.3 1210.56" style="enable-background:new 0 0 2314.3 1210.56;" xml:space="preserve">
<style type="text/css">
	.st0{fill:#002155;}
	.st1{fill:#003B82;}
	.st2{fill:#005EBC;}
	.st3{fill:#024A93;}
	.st4{fill:#001430;}
	.st5{fill:#003075;}
</style>
<g>
	<path id="XMLID_319_" class="st0" d="M769.28,712.87c-0.68,0-0.81-0.17-0.85-0.23l-2.35-3.14l-45.26-65.28h-34.11v67.27
		c0,0.42-0.11,0.68-0.4,0.98c-0.29,0.29-0.55,0.39-0.97,0.39H657.5c-0.97,0-1.26-0.29-1.36-0.38c-0.26-0.26-0.4-0.49-0.4-0.98
		V502.44c0-1.08,0-1.37,1.76-1.37h69.03c9.96,0,19.49,1.89,28.31,5.62c8.85,3.74,16.62,8.86,23.08,15.19
		c6.46,6.34,11.7,13.91,15.58,22.52c3.84,8.56,5.78,17.93,5.78,27.85c0,14.18-3.84,27.22-11.42,38.76
		c-7.6,11.59-17.51,20.37-29.44,26.08l-3.53,1.69l50.97,73.61c-0.51,0.33-0.92,0.46-1.28,0.46H769.28z M686.72,613.65h39.81
		c5.65,0,11.1-1.08,16.19-3.2c5.09-2.12,9.61-5.13,13.44-8.96c3.81-3.81,6.82-8.25,8.94-13.2c2.13-4.97,3.21-10.36,3.21-16.03
		c0-5.4-1.08-10.66-3.21-15.63c-2.13-4.97-5.16-9.36-8.99-13.05c-3.83-3.68-8.33-6.61-13.39-8.72c-5.1-2.12-10.54-3.2-16.19-3.2
		h-39.81V613.65z"/>
	<path id="XMLID_245_" class="st0" d="M829.29,712.87c-1.76,0-1.76-0.29-1.76-1.37V502.44c0-0.42,0.11-0.69,0.4-0.98
		c0.1-0.1,0.39-0.38,1.35-0.38h62.18c8.97,0,17.63,1.39,25.73,4.14c8.03,2.73,15.1,6.68,20.99,11.73
		c5.88,5.04,10.6,11.15,14.03,18.15c3.41,6.96,5.13,14.84,5.13,23.44c0,7.36-1.36,14.31-4.05,20.66
		c-2.69,6.36-6.52,11.92-11.38,16.53l-3.06,2.9l3.52,2.32c8.68,5.71,15.72,13.06,20.93,21.86c5.16,8.71,7.77,18.37,7.77,28.69
		c0,8.62-1.74,16.72-5.18,24.08c-3.47,7.42-8.23,14-14.16,19.57c-5.94,5.57-12.97,9.96-20.9,13.06c-7.94,3.1-16.63,4.67-25.84,4.67
		H829.29z M858.5,682.29h46.49c10.5,0,19.05-3.01,25.42-8.94c6.43-5.99,9.69-13.34,9.69-21.86c0-8.5-3.25-15.91-9.66-22.03
		c-6.37-6.08-14.94-9.16-25.45-9.16H858.5V682.29z M858.5,584.23h33.15c10.02,0,18.28-2.03,24.55-6.02
		c6.75-4.3,10.17-10.92,10.17-19.68c0-8.68-3.38-15.48-10.04-20.18c-6.31-4.44-14.61-6.69-24.68-6.69H858.5V584.23z"/>
	<path id="XMLID_244_" class="st0" d="M983.83,712.87c-0.79,0-1.12-0.16-1.17-0.2c-0.04-0.05-0.2-0.38-0.2-1.17v-27.85
		c0-0.9,0.19-1.16,0.19-1.16c0,0,0.26-0.2,1.17-0.2h41.77V531.66h-41.77c-0.79,0-1.12-0.16-1.17-0.2c-0.04-0.05-0.2-0.38-0.2-1.17
		v-27.85c0-0.79,0.16-1.13,0.2-1.17c0.04-0.04,0.38-0.2,1.17-0.2h114.13c1.76,0,1.76,0.29,1.76,1.37v27.85c0,1.08,0,1.37-1.76,1.37
		h-41.39v150.63h41.39c1.76,0,1.76,0.29,1.76,1.36v27.85c0,1.08,0,1.37-1.76,1.37H983.83z"/>
	<path id="XMLID_243_" class="st0" d="M1170.18,712.87c-1.37,0-1.41-0.12-1.41-1.37V531.66h-51.58c-0.79,0-1.12-0.16-1.17-0.2
		c-0.04-0.05-0.2-0.38-0.2-1.17v-27.85c0-0.79,0.16-1.13,0.2-1.17c0.05-0.04,0.38-0.2,1.17-0.2h133.75c0.58,0,1.06,0.16,1.54,0.52
		c0.05,0.04,0.22,0.17,0.22,0.85v27.85c0,0.24-0.03,0.48-0.42,0.82c-0.44,0.38-0.84,0.55-1.34,0.55h-51.19V711.5
		c0,1.23-0.05,1.37-1.41,1.37H1170.18z"/>
	<path id="XMLID_172_" class="st0" d="M1246.62,712.87c-0.74,0-1.34-0.17-1.87-0.53l69.75-208.85c0.32-1.06,0.85-2.02,2.66-2.43
		h29.1c1.39,0.36,2.38,1.2,3.17,2.67l69.66,208.59c-0.69,0.48-1.16,0.53-1.47,0.53h-30.2c-0.72-0.66-1.18-1.55-1.61-2.61
		l-17.96-53.48h-71.89l-17.62,53.68c-0.35,0.86-0.82,1.75-1.31,2.43L1246.62,712.87z M1305.91,626.2h51.64l-25.82-76.99
		L1305.91,626.2z"/>
	<path id="XMLID_171_" class="st0" d="M1441.95,712.87c-1.76,0-1.76-0.29-1.76-1.37V502.44c0-0.43,0.11-0.69,0.39-0.98
		c0.1-0.1,0.4-0.39,1.37-0.39h27.85c0.42,0,0.68,0.1,0.98,0.4c0.28,0.28,0.39,0.55,0.39,0.97v179.85h87.27
		c0.42,0,0.69,0.11,0.98,0.4c0.28,0.28,0.39,0.54,0.39,0.96v27.85c0,0.42-0.11,0.69-0.39,0.98c-0.29,0.29-0.55,0.39-0.98,0.39
		H1441.95z"/>
	<polygon id="XMLID_122_" class="st0" points="1610.86,712.87 1540.26,501.48 1553.34,501.48 1620.9,705.76 1689.53,501.48 
		1702.2,501.48 1631.6,712.87 	"/>
	<polygon id="XMLID_121_" class="st0" points="1736.36,712.87 1736.36,701.21 1783.92,701.21 1783.92,513.15 1736.36,513.15 
		1736.36,501.48 1843.57,501.48 1843.57,513.15 1796.02,513.15 1796.02,701.21 1843.57,701.21 1843.57,712.87 	"/>
	<polygon id="XMLID_119_" class="st0" points="1878.52,712.87 1878.52,501.48 1998.69,501.48 1998.69,513.15 1890.61,513.15 
		1890.61,600.91 1998.69,600.91 1998.69,612.58 1890.61,612.58 1890.61,701.21 1998.69,701.21 1998.69,712.87 	"/>
	<polygon id="XMLID_118_" class="st0" points="2233.01,712.87 2176.43,508.18 2118.74,712.87 2098.07,712.87 2037.39,501.48 
		2050.86,501.48 2108.28,705.2 2166.8,501.48 2185.32,501.48 2242.79,704.31 2300.83,501.48 2314.3,501.48 2253.22,712.87 	"/>
	<g>
		<path id="XMLID_340_" class="st1" d="M332.17,458.16c-1.22,0.14-2.48-0.44-3.12-1.58l-15.48-26.47c-0.87-1.52-0.34-3.46,1.18-4.32
			c1.51-0.86,3.45-0.34,4.32,1.18l15.48,26.47c0.87,1.52,0.34,3.46-1.18,4.32C332.99,457.99,332.58,458.12,332.17,458.16z"/>
		<path id="XMLID_339_" class="st1" d="M319.16,465.5l-8.57-15.04c-0.37-0.66-0.14-1.5,0.51-1.88l25.19-14.35
			c0.66-0.37,1.5-0.14,1.88,0.51l8.57,15.04c0.37,0.66,0.14,1.5-0.51,1.88l-25.19,14.35C320.38,466.39,319.53,466.16,319.16,465.5z"
			/>
		
			<rect id="XMLID_338_" x="135.4" y="67.81" transform="matrix(0.8689 -0.495 0.495 0.8689 -18.9927 110.5085)" class="st2" width="127.41" height="46.6"/>
		<path id="XMLID_337_" class="st2" d="M130.65,99.65l110.7-63.07L223.62,5.44c-2.94-5.16-9.51-6.96-14.68-4.02L107.58,59.16
			L130.65,99.65z"/>
		
			<rect id="XMLID_336_" x="22.06" y="132.38" transform="matrix(0.8689 -0.495 0.495 0.8689 -65.8214 62.8682)" class="st2" width="127.4" height="46.6"/>
		<path id="XMLID_335_" class="st2" d="M128.01,101.15l-23.07-40.49L7.99,115.9c-7.59,4.32-10.24,13.98-5.91,21.57l15.24,26.75
			L128.01,101.15z"/>
		
			<rect id="XMLID_334_" x="164.4" y="118.6" transform="matrix(0.8689 -0.495 0.495 0.8689 -40.3904 131.5407)" class="st2" width="127.41" height="46.82"/>
		
			<rect id="XMLID_333_" x="189.04" y="162.07" transform="matrix(0.8689 -0.495 0.495 0.8689 -58.5651 149.4055)" class="st3" width="127.41" height="46.37"/>
		
			<rect id="XMLID_332_" x="75.7" y="226.64" transform="matrix(0.8689 -0.495 0.495 0.8689 -105.3938 101.7652)" class="st3" width="127.4" height="46.37"/>
		
			<rect id="XMLID_330_" x="51.07" y="183.18" transform="matrix(0.8689 -0.495 0.495 0.8689 -87.2191 83.9004)" class="st2" width="127.4" height="46.82"/>
		
			<rect id="XMLID_329_" x="217.99" y="212.65" transform="matrix(0.8689 -0.495 0.495 0.8689 -79.9222 170.3978)" class="st3" width="127.41" height="46.82"/>
		
			<rect id="XMLID_328_" x="242.62" y="256.12" transform="matrix(0.8689 -0.495 0.495 0.8689 -98.0969 188.2625)" class="st1" width="127.41" height="46.37"/>
		
			<rect id="XMLID_327_" x="104.65" y="277.23" transform="matrix(0.8689 -0.495 0.495 0.8689 -126.7508 122.7574)" class="st3" width="127.4" height="46.82"/>
		
			<rect id="XMLID_326_" x="129.28" y="320.69" transform="matrix(0.8689 -0.495 0.495 0.8689 -144.9256 140.6222)" class="st1" width="127.4" height="46.37"/>
		
			<rect id="XMLID_325_" x="271.57" y="306.71" transform="matrix(0.8689 -0.495 0.495 0.8689 -119.4539 209.2548)" class="st1" width="127.41" height="46.82"/>
		<path id="XMLID_324_" class="st1" d="M293.08,384.74l22.96,40.3l96.87-55.19c7.64-4.35,10.31-14.08,5.95-21.72l-15.07-26.46
			L293.08,384.74z"/>
		
			<rect id="XMLID_323_" x="158.23" y="371.28" transform="matrix(0.8689 -0.495 0.495 0.8689 -166.2826 161.6145)" class="st1" width="127.4" height="46.82"/>
		<path id="XMLID_322_" class="st1" d="M290.43,386.25l-110.69,63.07l15.07,26.46c4.35,7.64,14.08,10.31,21.72,5.95l96.86-55.18
			L290.43,386.25z"/>
	</g>
	<g>
		<path id="XMLID_117_" class="st4" d="M524.88,788.53c-1.22,0.15-2.48-0.43-3.13-1.56l-14.42-24.52c-0.88-1.51-0.36-3.45,1.16-4.33
			c1.49-0.88,3.46-0.36,4.33,1.16l14.42,24.52c0.88,1.51,0.36,3.45-1.16,4.33C525.7,788.35,525.29,788.48,524.88,788.53z"/>
		<path id="XMLID_116_" class="st4" d="M502.55,779.8l-8.65-15c-0.38-0.66-0.15-1.5,0.5-1.88l25.12-14.49
			c0.66-0.38,1.5-0.15,1.88,0.5l8.65,15c0.38,0.66,0.15,1.5-0.5,1.88l-25.12,14.49C503.78,780.68,502.93,780.45,502.55,779.8z"/>
		
			<rect id="XMLID_115_" x="555.25" y="795.63" transform="matrix(0.8662 -0.4997 0.4997 0.8662 -326.3834 418.8233)" class="st4" width="127.41" height="46.6"/>
		<path id="XMLID_114_" class="st4" d="M550.55,827.83l110.37-63.66l-14.45-25.05c-4.88-8.46-15.69-11.36-24.15-6.48l-95.05,54.83
			L550.55,827.83z"/>
		
			<rect id="XMLID_113_" x="442.26" y="860.81" transform="matrix(0.8662 -0.4997 0.4997 0.8662 -374.0685 371.0833)" class="st4" width="127.4" height="46.6"/>
		<path id="XMLID_112_" class="st4" d="M547.91,829.35l-23.28-40.36l-95.04,54.82c-8.46,4.88-11.36,15.69-6.48,24.15l14.45,25.05
			L547.91,829.35z"/>
		
			<rect id="XMLID_111_" x="584.52" y="846.27" transform="matrix(0.8662 -0.4997 0.4997 0.8662 -347.8259 440.2402)" class="st4" width="127.41" height="46.82"/>
		
			<rect id="XMLID_110_" x="609.39" y="889.6" transform="matrix(0.8662 -0.4997 0.4997 0.8662 -366.0387 458.4317)" class="st0" width="127.41" height="46.37"/>
		
			<rect id="XMLID_109_" x="496.4" y="954.78" transform="matrix(0.8662 -0.4997 0.4997 0.8662 -413.7237 410.6917)" class="st0" width="127.4" height="46.37"/>
		
			<rect id="XMLID_108_" x="471.53" y="911.45" transform="matrix(0.8662 -0.4997 0.4997 0.8662 -395.511 392.5002)" class="st4" width="127.4" height="46.82"/>
		
			<rect id="XMLID_107_" x="638.61" y="940.03" transform="matrix(0.8662 -0.4997 0.4997 0.8662 -387.4404 479.8078)" class="st5" width="127.41" height="46.82"/>
		
			<rect id="XMLID_106_" x="663.47" y="983.36" transform="matrix(0.8662 -0.4997 0.4997 0.8662 -405.6531 497.9993)" class="st1" width="127.41" height="46.37"/>
		
			<rect id="XMLID_105_" x="525.62" y="1005.21" transform="matrix(0.8662 -0.4997 0.4997 0.8662 -435.1254 432.0678)" class="st5" width="127.4" height="46.82"/>
		
			<rect id="XMLID_104_" x="550.48" y="1048.54" transform="matrix(0.8662 -0.4997 0.4997 0.8662 -453.3382 450.2593)" class="st1" width="127.4" height="46.37"/>
		
			<rect id="XMLID_103_" x="692.69" y="1033.79" transform="matrix(0.8662 -0.4997 0.4997 0.8662 -427.0548 519.3755)" class="st1" width="127.41" height="46.82"/>
		<path id="XMLID_102_" class="st3" d="M714.49,1112.06l23.17,40.17l94.15-54.31c8.96-5.17,12.03-16.62,6.86-25.57l-13.82-23.95
			L714.49,1112.06z"/>
		
			<rect id="XMLID_101_" x="579.7" y="1098.98" transform="matrix(0.8662 -0.4997 0.4997 0.8662 -474.7399 471.6354)" class="st1" width="127.4" height="46.82"/>
		<path id="XMLID_100_" class="st3" d="M711.86,1113.58l-110.35,63.66l13.82,23.95c5.17,8.96,16.62,12.03,25.57,6.86l94.14-54.3
			L711.86,1113.58z"/>
	</g>
	<g id="XMLID_76_">
		<g id="XMLID_94_">
			<polygon id="XMLID_99_" class="st5" points="420.83,485.6 420.8,397.94 602.43,502.72 526.53,546.57 			"/>
			<polygon id="XMLID_98_" class="st4" points="420.92,729.65 420.95,817.31 602.5,712.4 526.57,668.6 			"/>
			<polygon id="XMLID_97_" class="st2" points="420.95,817.31 239.32,712.53 315.22,668.67 420.92,729.65 			"/>
			<polygon id="XMLID_96_" class="st1" points="420.83,485.6 315.18,546.65 239.25,502.85 420.8,397.94 			"/>
			<polygon id="XMLID_95_" class="st3" points="239.25,502.85 239.32,712.53 315.22,668.67 315.18,546.65 			"/>
		</g>
		<polygon id="XMLID_93_" class="st0" points="526.53,546.57 526.57,668.6 602.5,712.4 602.43,502.72 		"/>
	</g>
</g>
</svg>
